<?xml version="1.0" standalone="no"?><svg xmlns="http://www.w3.org/2000/svg" viewBox="0 0 1440 320"><path fill="#273036" fill-opacity="1" d="M0,192L10,208C20,224,40,256,60,240C80,224,100,160,120,160C140,160,160,224,180,250.7C200,277,220,267,240,261.3C260,256,280,256,300,240C320,224,340,192,360,192C380,192,400,224,420,229.3C440,235,460,213,480,197.3C500,181,520,171,540,160C560,149,580,139,600,144C620,149,640,171,660,192C680,213,700,235,720,224C740,213,760,171,780,165.3C800,160,820,192,840,181.3C860,171,880,117,900,80C920,43,940,21,960,58.7C980,96,1000,192,1020,208C1040,224,1060,160,1080,122.7C1100,85,1120,75,1140,90.7C1160,107,1180,149,1200,138.7C1220,128,1240,64,1260,48C1280,32,1300,64,1320,74.7C1340,85,1360,75,1380,85.3C1400,96,1420,128,1430,144L1440,160L1440,320L1430,320C1420,320,1400,320,1380,320C1360,320,1340,320,1320,320C1300,320,1280,320,1260,320C1240,320,1220,320,1200,320C1180,320,1160,320,1140,320C1120,320,1100,320,1080,320C1060,320,1040,320,1020,320C1000,320,980,320,960,320C940,320,920,320,900,320C880,320,860,320,840,320C820,320,800,320,780,320C760,320,740,320,720,320C700,320,680,320,660,320C640,320,620,320,600,320C580,320,560,320,540,320C520,320,500,320,480,320C460,320,440,320,420,320C400,320,380,320,360,320C340,320,320,320,300,320C280,320,260,320,240,320C220,320,200,320,180,320C160,320,140,320,120,320C100,320,80,320,60,320C40,320,20,320,10,320L0,320Z"></path></svg>